<svg xmlns="http://www.w3.org/2000/svg" xmlns:xlink="http://www.w3.org/1999/xlink" width="500" zoomAndPan="magnify" viewBox="0 0 375 374.999991" height="500" preserveAspectRatio="xMidYMid meet" version="1.0"><defs><clipPath id="361220df15"><path d="M 184.851562 422.675781 L -40.539062 197.285156 L 227.277344 -70.53125 L 452.667969 154.859375 Z M 184.851562 422.675781 " clip-rule="nonzero"/></clipPath><clipPath id="85fe9926cb"><path d="M 25 38 L 344 38 L 344 357 L 25 357 Z M 25 38 " clip-rule="nonzero"/></clipPath><clipPath id="434b29b9dc"><path d="M 184.851562 422.675781 L -40.539062 197.285156 L 227.277344 -70.53125 L 452.667969 154.859375 Z M 184.851562 422.675781 " clip-rule="nonzero"/></clipPath><clipPath id="9c047783ca"><path d="M 227.269531 -70.273438 L 452.660156 155.113281 L 184.84375 422.933594 L -40.546875 197.542969 Z M 227.269531 -70.273438 " clip-rule="nonzero"/></clipPath><clipPath id="e07afdf9a5"><rect x="0" width="375" y="0" height="375"/></clipPath></defs><g clip-path="url(#361220df15)"><g transform="matrix(1, 0, 0, 1, 0, 0)"><g clip-path="url(#e07afdf9a5)"><g clip-path="url(#85fe9926cb)"><g clip-path="url(#434b29b9dc)"><g clip-path="url(#9c047783ca)"><path fill="#000000" d="M 343.847656 56.125 L 343.847656 197.613281 C 343.847656 240.128906 327.289062 280.105469 297.226562 310.167969 C 267.164062 340.230469 227.1875 356.789062 184.671875 356.789062 C 142.152344 356.789062 102.179688 340.230469 72.113281 310.167969 C 42.050781 280.105469 25.488281 240.132812 25.488281 197.617188 C 25.488281 155.101562 42.046875 115.125 72.109375 85.0625 C 102.171875 55 142.148438 38.441406 184.664062 38.441406 C 189.359375 38.441406 193.851562 40.304688 197.167969 43.625 C 200.488281 46.945312 202.347656 51.441406 202.351562 56.128906 L 202.351562 126.875 C 202.351562 136.640625 194.433594 144.558594 184.664062 144.5625 C 155.402344 144.5625 131.605469 168.363281 131.605469 197.625 C 131.605469 226.882812 155.402344 250.683594 184.664062 250.683594 C 198.839844 250.683594 212.160156 245.164062 222.179688 235.144531 C 232.199219 225.121094 237.71875 211.792969 237.71875 197.628906 L 237.71875 126.886719 C 237.71875 117.121094 245.636719 109.203125 255.410156 109.195312 C 265.171875 109.195312 273.089844 117.113281 273.097656 126.886719 L 273.097656 197.628906 C 273.097656 221.25 263.894531 243.460938 247.195312 260.160156 C 230.496094 276.859375 208.289062 286.0625 184.664062 286.0625 C 135.90625 286.0625 96.230469 246.386719 96.230469 197.628906 C 96.230469 154.917969 126.664062 119.175781 166.980469 110.964844 L 166.980469 75.0625 C 140.617188 78.804688 116.28125 90.910156 97.117188 110.070312 C 73.734375 133.457031 60.855469 164.546875 60.859375 197.613281 C 60.859375 230.679688 73.742188 261.773438 97.117188 285.152344 C 120.496094 308.53125 151.59375 321.414062 184.664062 321.414062 C 217.734375 321.414062 248.824219 308.535156 272.203125 285.15625 C 295.582031 261.777344 308.46875 230.679688 308.46875 197.613281 L 308.46875 56.125 C 308.46875 46.359375 316.386719 38.441406 326.15625 38.4375 C 335.929688 38.441406 343.847656 46.359375 343.847656 56.125 Z M 245.59375 70.835938 C 246.550781 71.476562 247.570312 72.015625 248.644531 72.464844 C 249.710938 72.898438 250.820312 73.246094 251.953125 73.476562 C 252.527344 73.585938 253.09375 73.675781 253.664062 73.722656 C 254.242188 73.777344 254.835938 73.8125 255.414062 73.8125 C 255.980469 73.824219 256.566406 73.785156 257.140625 73.722656 C 257.714844 73.671875 258.300781 73.585938 258.859375 73.460938 C 259.976562 73.238281 261.097656 72.902344 262.160156 72.453125 C 263.230469 72 264.253906 71.464844 265.214844 70.824219 C 265.691406 70.503906 266.164062 70.160156 266.628906 69.792969 C 267.066406 69.4375 267.503906 69.03125 267.90625 68.628906 C 271.199219 65.339844 273.089844 60.761719 273.089844 56.125 C 273.089844 51.464844 271.210938 46.898438 267.917969 43.609375 C 267.507812 43.199219 267.070312 42.816406 266.621094 42.449219 C 266.171875 42.078125 265.707031 41.738281 265.230469 41.421875 C 264.269531 40.777344 263.242188 40.226562 262.179688 39.789062 C 261.105469 39.339844 260 39.011719 258.871094 38.777344 C 258.300781 38.664062 257.726562 38.578125 257.152344 38.515625 C 256.574219 38.457031 255.992188 38.4375 255.414062 38.4375 C 254.835938 38.4375 254.253906 38.457031 253.675781 38.515625 C 253.113281 38.578125 252.527344 38.664062 251.964844 38.78125 C 250.84375 39.003906 249.722656 39.339844 248.65625 39.792969 C 247.585938 40.226562 246.558594 40.777344 245.601562 41.402344 C 245.125 41.722656 244.652344 42.066406 244.199219 42.441406 C 243.3125 43.171875 242.476562 44.007812 241.75 44.894531 C 241.378906 45.34375 241.035156 45.8125 240.710938 46.296875 C 240.066406 47.257812 239.527344 48.273438 239.089844 49.359375 C 238.652344 50.421875 238.304688 51.542969 238.082031 52.664062 C 237.964844 53.226562 237.871094 53.816406 237.816406 54.375 C 237.757812 54.953125 237.726562 55.542969 237.738281 56.113281 C 237.738281 56.691406 237.757812 57.273438 237.816406 57.851562 C 237.871094 58.433594 237.964844 59 238.070312 59.574219 C 238.304688 60.707031 238.640625 61.804688 239.082031 62.882812 C 239.519531 63.945312 240.074219 64.972656 240.714844 65.933594 C 241.035156 66.414062 241.375 66.878906 241.742188 67.328125 C 242.113281 67.777344 242.492188 68.214844 242.902344 68.625 C 243.3125 69.03125 243.75 69.414062 244.203125 69.789062 C 244.644531 70.160156 245.109375 70.511719 245.59375 70.835938 Z M 245.59375 70.835938 " fill-opacity="1" fill-rule="nonzero"/></g></g></g></g></g></g></svg>